<svg xmlns="http://www.w3.org/2000/svg" width="16" height="16" fill="none" viewBox="0 0 16 16"><path fill="#205B97" d="M8 11.4257L13.04 12.6209V3.21875L8 4.41391V11.4257Z"/><path fill="#5193CE" d="M13.04 3.21875L14 3.69681V12.1428L13.04 12.6209V3.21875ZM7.99996 11.4257L2.95996 12.6209V3.21875L7.99996 4.41391V11.4257Z"/><path fill="#205B97" d="M2.96 3.21875L2 3.69681V12.1428L2.96 12.6209V3.21875Z"/><path fill="#5193CE" d="M9.28036 14.534L11.2004 13.5779V2.29011L9.28036 1.33398L8.69336 7.60208L9.28036 14.534Z"/><path fill="#205B97" d="M6.7198 14.534L4.7998 13.5779V2.29011L6.7198 1.33398L7.3068 7.60208L6.7198 14.534Z"/><path fill="#2E73B7" d="M6.71973 1.33398H9.30623V14.5073H6.71973V1.33398Z"/></svg>